<svg id="Capa_1" data-name="Capa 1" xmlns="http://www.w3.org/2000/svg" width="13.84mm" height="13.84mm" viewBox="0 0 39.23 39.23"><defs><style>.cls-1{fill:#e66000;}.cls-2{fill:#fff;}</style></defs><circle class="cls-1" cx="19.61" cy="19.61" r="19.61"/><circle class="cls-2" cx="32.36" cy="14.35" r="3.99"/><path class="cls-1" d="M32.75,17.06a.6.6,0,0,1-.46-.19.64.64,0,0,1-.19-.45v-1h-1a.65.65,0,0,1-.46-.2.64.64,0,0,1-.19-.45.65.65,0,0,1,.65-.65h1v-1a.65.65,0,1,1,1.3,0v1h1a.65.65,0,0,1,0,1.3h-1v1A.65.65,0,0,1,32.75,17.06Z" transform="translate(-0.39 -0.39)"/><path class="cls-2" d="M33.72,8.27c-1.28,0-2.55,0-3.82.09A2.59,2.59,0,0,0,27.5,10a18.46,18.46,0,0,0-.73,2.13c-.23.73-.4.87-1.14.87H16.37v0H7.3C5.87,13,5.61,13.34,6,14.7c.66,2.24,1.31,4.47,2,6.71a1.22,1.22,0,0,0,1.12.93c4.62.71,9.24,1.4,13.86,2.12a10,10,0,0,1,1.74.42.86.86,0,0,1,.6.91.91.91,0,0,1-.73.86,6.62,6.62,0,0,1-1.34.12q-6.6,0-13.2,0a4.2,4.2,0,0,0-.69.06.75.75,0,0,0-.66.81.74.74,0,0,0,.7.8,2.59,2.59,0,0,0,.69,0c3.65,0,7.32,0,11,0,1.11,0,2.22,0,3.32,0a2.72,2.72,0,0,0,1.57-4.91.89.89,0,0,1-.38-1.16c.11-.31.18-.62.27-.93,1-3.32,2-6.67,3-10a1.75,1.75,0,0,1,1.84-1.42c.71,0,1.4,0,2.11,0a13,13,0,0,0,1.4-.07.73.73,0,0,0,.69-.78C34.84,8.59,34.48,8.27,33.72,8.27Zm-8.06,7.52-1.78,6.33a.81.81,0,0,1-.91.58l-12.6-2a.8.8,0,0,1-.65-.54L8.23,15.83A.82.82,0,0,1,9,14.74l15.89,0A.81.81,0,0,1,25.66,15.79Z" transform="translate(-0.39 -0.39)"/><path class="cls-2" d="M12.63,29a2.62,2.62,0,0,0-2.69,2.66,2.64,2.64,0,0,0,2.6,2.65,2.74,2.74,0,0,0,2.69-2.6A2.7,2.7,0,0,0,12.63,29Zm0,3.51a.88.88,0,0,1-.91-.87.86.86,0,0,1,.88-.86.87.87,0,1,1,0,1.73Z" transform="translate(-0.39 -0.39)"/><path class="cls-2" d="M22,29a2.65,2.65,0,1,0,0,5.29A2.65,2.65,0,0,0,22,29Zm0,3.51a.9.9,0,0,1-.93-.85,1,1,0,0,1,.91-.9.93.93,0,0,1,.87.88A.89.89,0,0,1,22,32.5Z" transform="translate(-0.39 -0.39)"/></svg>