<svg id="Capa_1" data-name="Capa 1" xmlns="http://www.w3.org/2000/svg" width="22.45" height="20.14" viewBox="0 0 22.45 20.14"><defs><style>.cls-1{fill:#9e9e9e;}</style></defs><path class="cls-1" d="M21.56,0c-1,0-2,0-3,.07A2,2,0,0,0,16.7,1.34,15.41,15.41,0,0,0,16.22,3c-.18.57-.31.68-.89.68H1.14C0,3.66-.16,3.94.14,5c.51,1.73,1,3.46,1.51,5.19a1,1,0,0,0,.87.72q5.36.8,10.7,1.67a7.16,7.16,0,0,1,1.35.32.69.69,0,0,1,.47.71.73.73,0,0,1-.57.66,5.65,5.65,0,0,1-1,.1H3.22a2.44,2.44,0,0,0-.54,0,.58.58,0,0,0-.5.63.55.55,0,0,0,.49.61h0a2.44,2.44,0,0,0,.54,0H14.31a2.1,2.1,0,0,0,1.56-.75A2,2,0,0,0,15.8,12a2.69,2.69,0,0,0-.28-.22c-.31-.25-.47-.5-.3-.9.09-.24.14-.48.21-.72C16.21,7.62,17,5,17.73,2.45a1.37,1.37,0,0,1,1.48-1.07h1.63a9.73,9.73,0,0,0,1.08,0,.56.56,0,0,0,.54-.6h0C22.43.26,22.15,0,21.56,0ZM15.34,5.82,14,10.72a.63.63,0,0,1-.7.45L3.52,9.62A.65.65,0,0,1,3,9.2L1.86,5.85a.62.62,0,0,1,.38-.8.52.52,0,0,1,.21,0H14.74a.64.64,0,0,1,.62.66A.77.77,0,0,1,15.34,5.82Z" transform="translate(-0.01)"/><path class="cls-1" d="M5.22,16a2,2,0,0,0-2,2v0a2.05,2.05,0,0,0,2,2.06,2.14,2.14,0,0,0,2.08-2,2.08,2.08,0,0,0-2-2.11Zm0,2.71a.67.67,0,0,1-.7-.64v0a.67.67,0,0,1,.67-.69.68.68,0,0,1,0,1.36Z" transform="translate(-0.01)"/><path class="cls-1" d="M12.52,16a2,2,0,1,0,2,2A2,2,0,0,0,12.52,16Zm0,2.71a.69.69,0,0,1-.72-.66h0a.74.74,0,0,1,.71-.69.71.71,0,0,1,.67.68.69.69,0,0,1-.65.67Z" transform="translate(-0.01)"/></svg>