<svg id="Capa_1" data-name="Capa 1" xmlns="http://www.w3.org/2000/svg" width="31.83mm" height="4.88mm" viewBox="0 0 90.24 13.83"><defs><style>.cls-1{font-size:7.92px;font-family:Arial-BoldMT, Arial;font-weight:700;}.cls-1,.cls-3{fill:#e66000;}.cls-2{fill:#b2b2b2;}</style></defs><text class="cls-1" transform="translate(18.8 10.85)">Chic&apos;s<tspan class="cls-2" x="23.45" y="0" xml:space="preserve"> Garage Sale</tspan></text><path class="cls-3" d="M22.71,4.18,13.09,1.59h-.24L3.24,4.18a.47.47,0,0,0-.34.58.48.48,0,0,0,.46.35h.12L13,2.55,22.46,5.1h.12a.47.47,0,0,0,.13-.93Z" transform="translate(-2.88 -1.58)"/><path class="cls-3" d="M19.24,5.12a.47.47,0,0,0-.48.48v8.71h-.57V6.81a.48.48,0,0,0-.48-.48H7.57a.47.47,0,0,0-.48.48v7.5H6.52V5.6A.47.47,0,0,0,6,5.12a.48.48,0,0,0-.48.48v9.19a.49.49,0,0,0,.48.48H7.57a.49.49,0,0,0,.48-.48V7.29h9.18v7.5a.49.49,0,0,0,.48.48h1.53a.48.48,0,0,0,.47-.48V5.6A.47.47,0,0,0,19.24,5.12Z" transform="translate(-2.88 -1.58)"/><path class="cls-3" d="M16.41,8.09H8.73a.48.48,0,0,0,0,1h7.68a.48.48,0,0,0,0-1Z" transform="translate(-2.88 -1.58)"/></svg>